# xmcd
#
# Track frame offsets:
#	150
#	19470
#	34612
#	45367
#	61740
#	82650
#	93652
#	110720
#	128245
#
# Disc length: 1898 seconds
#
# Revision: 0
# Processed by: cddbd v1.5PL3 Copyright (c) Steve Scherf et al.
# Submitted via: dBpowerAMP V4.0
#
DISCID=6a076809
DTITLE=Olivier Andu - Jumet-Cotonou
DYEAR=2004
DGENRE=blues
TTITLE0=makissa
TTITLE1=billy (le retour)
TTITLE2=les p'tits gars 1
TTITLE3=l'amour inoxydable
TTITLE4=sele 1
TTITLE5=les p'tits gars 2
TTITLE6=la seul chose qui compte
TTITLE7=les p'tits gars 3
TTITLE8=sele 2
EXTD=Now that you've discovered the music, please buy the cd.  This artist needs it.  Thanks.
EXTT0=
EXTT1=
EXTT2=
EXTT3=
EXTT4=
EXTT5=
EXTT6=
EXTT7=
EXTT8=
PLAYORDER=
